<svg width="71" height="28" viewBox="0 0 71 28" fill="none" xmlns="http://www.w3.org/2000/svg">
<path fill-rule="evenodd" clip-rule="evenodd" d="M0.782712 24.6367H1.2152C1.60655 24.6367 1.81248 24.8344 1.81248 25.2104C1.81248 25.5862 1.60655 25.7643 1.2152 25.7643H0.782712V24.6367ZM0.782712 27.9998V26.3973H1.1328C2.12144 26.3973 2.59505 25.9621 2.59505 25.2104C2.59505 24.4586 2.12144 24.0234 1.1328 24.0234H0V27.9998H0.782712Z" fill="#231F20"/>
<path fill-rule="evenodd" clip-rule="evenodd" d="M4.90171 25.1292C4.90171 24.694 5.10778 24.5753 5.41659 24.5753C5.74619 24.5753 5.93148 24.694 5.93148 25.1292V26.7515C5.93148 27.2064 5.74619 27.3251 5.41659 27.3251C5.10778 27.3251 4.90171 27.2064 4.90171 26.7515V25.1292ZM4.11914 26.6525C4.11914 27.6416 4.65466 27.9977 5.41659 27.9977C6.1993 27.9977 6.73482 27.6416 6.73482 26.6525V25.2281C6.73482 24.2587 6.1993 23.9027 5.41659 23.9027C4.65466 23.9027 4.11914 24.2587 4.11914 25.2281V26.6525Z" fill="#231F20"/>
<path fill-rule="evenodd" clip-rule="evenodd" d="M9.04089 28H9.80283L10.4414 25.27L11.018 28H11.7801L12.7068 24.0237H11.9655L11.4094 26.6152H11.3887L10.8121 24.0237H10.05L9.49401 26.6152H9.47338L8.91722 24.0237H8.17578L9.04089 28Z" fill="#231F20"/>
<path fill-rule="evenodd" clip-rule="evenodd" d="M16.4548 27.9998V27.3271H15.013V26.2786H16.0634V25.606H15.013V24.6961H16.393V24.0234H14.2305V27.9998H16.4548Z" fill="#231F20"/>
<path fill-rule="evenodd" clip-rule="evenodd" d="M18.9292 24.6367H19.341C19.6913 24.6367 19.8972 24.8148 19.8972 25.1906C19.8972 25.5862 19.6913 25.7445 19.341 25.7445H18.9292V24.6367ZM20.8445 27.9998L20.062 26.2192C20.515 26.0611 20.6798 25.7049 20.6798 25.2104C20.6798 24.4586 20.2266 24.0234 19.2793 24.0234H18.126V27.9998H18.9292V26.3775H19.2999L20.0001 27.9998H20.8445Z" fill="#231F20"/>
<path fill-rule="evenodd" clip-rule="evenodd" d="M25.7026 25.1293C25.7026 24.6942 25.9086 24.5754 26.2175 24.5754C26.5471 24.5754 26.753 24.6942 26.753 25.1293V26.7516C26.753 27.2065 26.5471 27.3253 26.2175 27.3253C25.9086 27.3253 25.7026 27.2065 25.7026 26.7516V25.1293ZM24.9199 26.6526C24.9199 27.6417 25.4554 27.9979 26.2175 27.9979C27.0001 27.9979 27.5356 27.6417 27.5356 26.6526V25.2283C27.5356 24.2589 27.0001 23.9028 26.2175 23.9028C25.4554 23.9028 24.9199 24.2589 24.9199 25.2283V26.6526Z" fill="#231F20"/>
<path fill-rule="evenodd" clip-rule="evenodd" d="M30.0083 28V26.2788H30.9969V25.6062H30.0083V24.6963H31.2852V24.0237H29.2051V28H30.0083Z" fill="#231F20"/>
<path fill-rule="evenodd" clip-rule="evenodd" d="M37.8971 24.872C37.7529 24.2983 37.3204 23.9026 36.6201 23.9026C35.7963 23.9026 35.3638 24.3378 35.3638 25.0104C35.3638 26.1381 37.135 26.1381 37.135 26.8898C37.135 27.1865 36.9291 27.3646 36.6612 27.3646C36.4142 27.3646 36.1259 27.1865 36.0435 26.7118L35.2607 26.8701C35.4668 27.6612 35.9611 27.9976 36.6201 27.9976C37.4439 27.9976 37.9382 27.5427 37.9382 26.8503C37.9382 25.604 36.167 25.5644 36.167 24.9709C36.167 24.6939 36.3111 24.5356 36.5995 24.5356C36.8673 24.5356 37.0526 24.6939 37.1762 25.0697L37.8971 24.872Z" fill="#231F20"/>
<path d="M40.3257 24.0237H39.5225V28H40.3257V24.0237Z" fill="#231F20"/>
<path fill-rule="evenodd" clip-rule="evenodd" d="M42.6122 27.9998V24.874L43.4566 27.9998H44.0539L44.8984 24.874H44.9189V27.9998H45.5986V24.0234H44.4864L43.7656 26.6347H43.745L43.0448 24.0234H41.9326V27.9998H42.6122Z" fill="#231F20"/>
<path fill-rule="evenodd" clip-rule="evenodd" d="M47.9252 24.6367H48.3576C48.749 24.6367 48.9549 24.8344 48.9549 25.2104C48.9549 25.5862 48.749 25.7643 48.3576 25.7643H47.9252V24.6367ZM47.9252 27.9998V26.3973H48.2752C49.2639 26.3973 49.7376 25.9621 49.7376 25.2104C49.7376 24.4586 49.2639 24.0234 48.2752 24.0234H47.1426V27.9998H47.9252Z" fill="#231F20"/>
<path fill-rule="evenodd" clip-rule="evenodd" d="M53.0958 28.0002V27.3276H51.8395V24.0239H51.0361V28.0002H53.0958Z" fill="#231F20"/>
<path d="M55.2796 24.0234H54.4971V27.9998H55.2796V24.0234Z" fill="#231F20"/>
<path fill-rule="evenodd" clip-rule="evenodd" d="M57.563 25.1293C57.563 24.6942 57.7689 24.5754 58.0777 24.5754C58.4073 24.5754 58.6134 24.6942 58.6134 25.1293V25.2481H59.396V25.2283C59.396 24.2589 58.8604 23.9028 58.0777 23.9028C57.3158 23.9028 56.7803 24.2589 56.7803 25.2283V26.6526C56.7803 27.6417 57.3158 27.9979 58.0777 27.9979C58.8604 27.9979 59.396 27.6417 59.396 26.6526V26.4943H58.6134V26.7516C58.6134 27.2065 58.4073 27.3253 58.0777 27.3253C57.7689 27.3253 57.563 27.2065 57.563 26.7516V25.1293Z" fill="#231F20"/>
<path d="M61.9115 24.0234H61.1289V27.9998H61.9115V24.0234Z" fill="#231F20"/>
<path fill-rule="evenodd" clip-rule="evenodd" d="M63.3525 24.0234V24.6961H64.2793V27.9998H65.062V24.6961H65.9887V24.0234H63.3525Z" fill="#231F20"/>
<path fill-rule="evenodd" clip-rule="evenodd" d="M67.985 24.0237H67.1406L68.2734 26.3975V28H69.0766V26.3975L70.2094 24.0237H69.3649L68.6853 25.626L67.985 24.0237Z" fill="#231F20"/>
<path fill-rule="evenodd" clip-rule="evenodd" d="M28.4481 11.0741C28.9912 10.6929 30.1607 9.28859 30.2235 9.16818C30.307 9.02783 30.5367 8.787 30.2652 8.5463C29.9937 8.30561 29.7848 8.44596 29.4925 8.58644C29.2001 8.72693 27.8632 9.72998 27.362 10.1312C26.8816 10.5124 25.6493 11.5957 25.6493 11.5957C25.6493 11.5957 24.981 12.1775 25.2106 12.4785C25.4614 12.7594 25.6703 12.659 26.0462 12.5588C26.4012 12.4584 27.905 11.4553 28.4481 11.0741ZM55.9765 18.0758C56.1646 18.1561 56.6241 18.2764 56.5823 18.7177C56.5823 18.7177 56.1646 19.5805 56.0184 19.6407C55.8513 19.7208 55.5589 19.7208 54.8905 19.46C54.2431 19.1993 51.2562 18.4369 50.4416 18.2764C49.648 18.1159 47.8099 17.8149 47.8099 17.8149C47.8099 17.8149 47.5802 17.6746 47.2043 18.2563C46.8282 18.8582 45.6377 20.5634 45.6377 20.5634C45.6377 20.5634 45.5542 20.8043 45.3453 20.8043C45.1155 20.8043 44.1549 20.7441 43.7997 20.5434C43.4237 20.3428 43.3402 20.3629 43.5491 19.9817C43.7789 19.6005 44.6143 17.9554 44.9694 17.6143C45.3035 17.2934 44.7396 17.3736 44.5516 17.3335C44.3845 17.2934 40.7712 17.1127 39.7059 17.1328C38.6616 17.1529 34.9021 17.1529 33.5654 17.2332C32.2286 17.3134 27.3411 17.7748 26.0462 17.9755C24.7512 18.1961 19.5295 18.9384 18.8193 19.0789C18.1093 19.2193 16.7099 19.4801 16.7099 19.4801C16.7099 19.4801 16.0206 19.6407 15.3104 19.3398C14.6211 19.0186 13.5142 18.5774 14.4541 18.2764C15.4149 17.9755 20.0309 17.0525 21.4721 16.852C22.9131 16.6314 27.4037 15.9893 29.3044 15.8891C31.2051 15.7887 36.2805 15.5079 38.2021 15.5079C40.1028 15.528 42.7554 15.6482 43.8832 15.7486C45.0112 15.8289 45.7631 15.8891 45.9719 15.9091C46.2017 15.9493 46.2226 15.7887 46.4315 15.528C46.6612 15.2671 47.3714 14.3443 47.3714 14.3443C47.3714 14.3443 47.601 13.9832 47.1415 14.2841C46.703 14.585 45.9719 14.605 45.5959 14.264C45.2409 13.9029 45.0738 13.602 44.9068 13.7223C44.7396 13.8226 44.0504 14.1436 43.6952 14.264C43.3193 14.4043 41.732 14.7656 40.7921 14.1235C39.8313 13.4615 39.8104 13.2208 39.685 12.8997C39.5598 12.5988 39.497 12.6189 39.1838 12.8196C38.8705 13.0201 37.8053 13.5418 37.4084 13.7223C37.0115 13.8828 36.7191 14.0434 36.0926 13.9832C35.4869 13.943 34.7977 13.7624 34.5052 13.2609C34.2337 12.7593 34.1919 12.3982 33.8578 12.6189C33.5235 12.8597 31.7899 13.8628 30.871 14.1235C29.9311 14.4043 29.7013 14.5248 29.1792 14.4244C28.636 14.3443 28.0721 14.1235 27.8632 13.8025C27.6545 13.4816 27.6335 13.4013 27.3828 13.5819C27.1531 13.7825 26.4848 14.2841 25.9835 14.2439C25.4823 14.1837 24.1872 13.8628 23.477 12.5588C22.767 11.2346 23.2683 10.6929 23.9157 10.0309C24.5423 9.38894 25.6703 8.42589 25.6703 8.42589C25.6703 8.42589 27.0696 7.38269 27.55 7.16207C28.0304 6.94131 28.7823 6.49992 29.2627 6.45978C29.764 6.41978 30.4532 6.47985 31.1425 7.02158C31.8317 7.56332 32.2286 8.16512 32.3121 8.36568C32.3957 8.58644 32.6881 9.38894 32.2077 9.93054C31.7064 10.4723 30.307 11.7762 30.307 11.7762C30.307 11.7762 29.764 12.0973 30.0146 12.4785C30.2652 12.8798 31.1843 12.2377 31.4975 12.0371C31.7899 11.8164 33.3983 10.4522 33.8995 9.99074C34.3799 9.50936 37.5128 6.45978 37.8053 6.17895C38.0768 5.89811 40.6667 3.31013 41.0427 3.0693C41.4186 2.82861 41.5649 2.64812 42.2542 2.78847C42.9643 2.92895 43.382 3.16965 43.382 3.16965C43.382 3.16965 44.113 3.45062 43.5282 3.91194C42.9433 4.35332 40.9801 5.99846 40.4997 6.51999C39.9983 7.02158 38.5781 8.44596 38.1186 8.96762C37.6591 9.48929 36.385 11.0339 36.1761 11.335C35.9672 11.6359 35.8629 11.9569 36.1761 12.1775C36.4894 12.3782 37.0324 12.1574 37.6173 11.676C38.2021 11.2146 39.8939 9.72998 40.4997 9.14811C41.1053 8.5463 44.3428 5.45672 44.6353 5.19596C44.9275 4.95527 46.4315 3.75152 46.4315 3.75152C46.4315 3.75152 46.6195 3.49062 47.058 3.49062C47.4967 3.49062 47.9353 3.5709 48.2068 3.67124C48.4783 3.79166 48.9587 4.07249 48.9587 4.07249C48.9587 4.07249 49.272 4.21298 48.7498 4.59402C48.2277 4.9752 45.5542 7.10186 44.8232 7.88429C44.0921 8.66672 42.6301 10.2716 42.087 11.0139C41.544 11.7562 41.168 12.0773 41.5857 12.5787C42.0035 13.0603 42.5048 12.9599 42.7554 12.8798C43.0061 12.7794 43.8415 12.1975 44.4471 11.5757C45.0529 10.9538 46.9536 8.92748 47.1415 8.68679C47.3504 8.44596 48.0397 7.7438 48.0397 7.7438C48.0397 7.7438 48.1859 7.46297 48.5827 7.46297C48.9796 7.46297 49.2302 7.52318 49.6271 7.60346C50.0239 7.6836 50.8803 7.86422 50.3999 8.34575C49.8986 8.8472 48.729 10.051 48.4783 10.3519C48.2277 10.6529 47.2251 11.7562 47.0371 12.0773C46.8491 12.4183 46.5985 12.7794 46.8491 12.9398C47.1208 13.1004 47.7473 12.8798 48.3948 12.5185C49.0213 12.1775 49.9613 11.5757 50.7758 10.8334C51.5905 10.1112 52.9063 8.90741 52.9063 8.90741C52.9063 8.90741 53.136 8.42589 54.0759 8.62658C55.0157 8.8472 55.2455 8.96762 55.2455 8.96762C55.2455 8.96762 55.9765 9.16817 55.4961 9.58949C55.0157 10.0309 53.3867 11.4954 52.76 12.0773C52.1335 12.6791 50.2328 14.6251 49.8986 15.0063C49.5644 15.3875 48.6663 16.2502 49.0422 16.2902C49.4182 16.3303 52.2379 16.8721 52.9063 17.0525C53.5747 17.2332 55.7887 17.9755 55.9765 18.0758ZM23.9366 2.66805C23.9366 2.66805 23.1429 2.54777 22.2447 2.64812C21.3467 2.74833 18.6104 3.0293 18.0674 3.24992C17.5454 3.47069 17.1694 2.96909 16.9605 2.74833C16.7307 2.54777 16.2086 2.00604 16.2086 2.00604C16.2086 2.00604 15.9371 1.68507 16.4175 1.56479C16.9187 1.46444 19.6966 0.982914 20.5739 0.902636C21.4511 0.822499 25.691 0.581665 26.8189 0.581665C27.926 0.601735 31.8527 0.80243 32.8761 1.08326C32.8761 1.08326 33.085 1.02305 33.2939 1.52465C33.5026 2.04618 33.4609 2.50763 33.4609 2.50763C33.4609 2.50763 33.6698 2.86874 32.9387 2.82861C32.2286 2.7684 31.038 2.70819 30.2235 2.66805C29.4298 2.60798 27.4873 2.46749 27.1948 2.48756C26.9233 2.50763 26.8398 2.48756 26.6727 2.70819C26.5057 2.94902 25.7329 3.93201 25.5449 4.19291C25.3569 4.4336 24.5423 5.47679 23.8531 6.41978C23.1638 7.34256 22.2866 8.50616 21.5137 9.72998C20.7618 10.9538 20.0518 12.0773 19.7594 12.5988C19.4669 13.1004 19.3416 13.4214 19.2997 13.5418C19.2371 13.6621 19.1745 13.8628 18.8403 13.8828C18.4852 13.9029 16.8561 13.8427 16.8561 13.8427C16.8561 13.8427 16.1668 13.9029 16.5846 13.1405C17.0022 12.3581 17.9422 10.8133 18.3389 10.2115C18.7358 9.60956 20.7618 6.82103 21.1587 6.29936C21.5347 5.79777 23.9366 2.66805 23.9366 2.66805Z" fill="#ED1C24"/>
<path fill-rule="evenodd" clip-rule="evenodd" d="M28.2225 10.4725C28.7655 10.0913 29.935 8.687 29.9976 8.56658C30.0813 8.4463 30.311 8.20547 30.0396 7.94456C29.768 7.70387 29.5591 7.84436 29.2667 7.9847C28.9744 8.12519 27.6375 9.14831 27.1363 9.52949C26.6559 9.91067 25.4236 10.9941 25.4236 10.9941C25.4236 10.9941 24.7552 11.5759 24.9851 11.8768C25.2147 12.1777 25.4444 12.0574 25.7996 11.9571C26.1757 11.8569 27.6584 10.8537 28.2225 10.4725ZM26.5933 0H26.2477C24.7786 0.0190802 21.1521 0.227408 20.3481 0.301043C19.4709 0.381321 16.6929 0.862849 16.1918 0.983124C15.6905 1.10354 15.9829 1.40444 15.9829 1.40444C15.9829 1.40444 16.505 1.94604 16.7348 2.1668C16.9437 2.36736 17.3196 2.88902 17.8419 2.66826C18.3847 2.42757 21.121 2.1668 22.0191 2.04653C22.9172 1.94604 23.69 2.06645 23.69 2.06645C23.69 2.06645 21.3089 5.19617 20.933 5.7177C20.5361 6.21929 18.5101 9.02804 18.1132 9.60977C17.7165 10.2117 16.7766 11.7766 16.3379 12.5388C15.9203 13.3012 16.6303 13.2612 16.6303 13.2612C16.6303 13.2612 18.2595 13.3011 18.6145 13.3011C18.9487 13.2812 19.0114 13.0605 19.0531 12.94C19.1159 12.8196 19.2411 12.4988 19.5336 11.9972C19.8259 11.4957 20.5152 10.3721 21.2882 9.14831C22.0608 7.9245 22.938 6.74096 23.6273 5.81818C24.3165 4.89527 25.1312 3.83201 25.3192 3.59117C25.5071 3.35048 26.28 2.34743 26.447 2.12652C26.6142 1.88583 26.6768 1.9059 26.9693 1.88583C27.2615 1.8659 29.204 2.00625 29.9976 2.06645C30.8123 2.12652 31.982 2.1668 32.713 2.22701C33.4439 2.28722 33.2352 1.9059 33.2352 1.9059C33.2352 1.9059 33.2769 1.44458 33.068 0.942985C32.8383 0.42146 32.6503 0.501739 32.6503 0.501739C31.606 0.200696 27.7002 0 26.5933 0ZM55.7509 17.4741C55.918 17.5744 56.3984 17.6948 56.3356 18.1161C56.3356 18.1161 55.9389 18.9787 55.7717 19.059C55.6047 19.1192 55.3124 19.1192 54.6648 18.8583C54.0172 18.5977 51.0305 17.8352 50.2159 17.6948C49.4223 17.5343 47.5842 17.2133 47.5842 17.2133C47.5842 17.2133 47.3545 17.0728 46.9786 17.6748C46.5816 18.2565 45.412 19.9618 45.412 19.9618C45.412 19.9618 45.3285 20.2025 45.1197 20.2025C44.8898 20.2025 43.9291 20.1425 43.574 19.9418C43.198 19.7611 43.1145 19.7812 43.3234 19.3801C43.5532 18.9988 44.3885 17.3536 44.7227 17.0126C45.0778 16.6918 44.5138 16.7719 44.3259 16.7318C44.1379 16.7117 40.5455 16.5111 39.4804 16.5312C38.4151 16.5513 34.6764 16.5513 33.3396 16.6316C32.0028 16.7318 27.0945 17.1733 25.7996 17.3939C24.5045 17.5945 19.3038 18.3568 18.5938 18.4972C17.8836 18.6377 16.4842 18.8785 16.4842 18.8785C16.4842 18.8785 15.774 19.059 15.0847 18.738C14.3956 18.417 13.2886 17.9757 14.2285 17.6948C15.1891 17.3939 19.805 16.471 21.2462 16.2504C22.6874 16.0497 27.1781 15.3877 29.0787 15.2873C30.9586 15.1871 36.055 14.9061 37.9764 14.9262C39.8771 14.9463 42.5296 15.0667 43.6576 15.1468C44.7855 15.2271 45.5374 15.2873 45.7463 15.3275C45.976 15.3676 45.9969 15.207 46.2056 14.9463C46.4356 14.6855 47.1456 13.7425 47.1456 13.7425C47.1456 13.7425 47.3755 13.4016 46.9158 13.7025C46.4564 13.9834 45.7254 14.0034 45.3703 13.6623C44.9944 13.3012 44.8481 13.0203 44.681 13.1205C44.5138 13.221 43.8246 13.5621 43.4486 13.6823C43.0936 13.8027 41.5062 14.1639 40.5662 13.5219C39.6056 12.8798 39.5847 12.6192 39.4593 12.3182C39.3341 11.9972 39.2713 12.0173 38.9581 12.2178C38.6448 12.4386 37.5795 12.94 37.1828 13.1205C36.7859 13.3011 36.4935 13.4416 35.867 13.4016C35.2611 13.3414 34.5719 13.1608 34.2795 12.6592C33.9871 12.1576 33.9662 11.7966 33.6319 12.0373C33.2978 12.258 31.5642 13.2812 30.6452 13.542C29.7054 13.8027 29.4755 13.9232 28.9535 13.8429C28.4104 13.7425 27.8255 13.5219 27.6375 13.2009C27.4287 12.8798 27.3869 12.7997 27.1572 13.0002C26.9276 13.1807 26.259 13.7025 25.7577 13.6423C25.2356 13.5821 23.9406 13.2812 23.2305 11.9571C22.5203 10.6531 23.0426 10.0913 23.6692 9.44936C24.3165 8.78734 25.4444 7.82429 25.4444 7.82429C25.4444 7.82429 26.8439 6.80117 27.3243 6.56033C27.8045 6.33971 28.5357 5.89832 29.037 5.85818C29.5174 5.83811 30.2276 5.87839 30.9169 6.41999C31.606 6.96158 31.982 7.56339 32.0864 7.78415C32.17 7.9847 32.4624 8.78734 31.9611 9.32894C31.4808 9.87067 30.0813 11.1746 30.0813 11.1746C30.0813 11.1746 29.5174 11.5157 29.7889 11.8968C30.0396 12.278 30.9586 11.6562 31.2509 11.4355C31.5642 11.2348 33.1726 9.85046 33.6739 9.38915C34.1542 8.90762 37.2871 5.85818 37.5588 5.59742C37.8303 5.31645 40.4202 2.70854 40.817 2.4677C41.1929 2.22701 41.3392 2.04653 42.0283 2.18673C42.7176 2.32722 43.1354 2.56805 43.1354 2.56805C43.1354 2.56805 43.8665 2.84888 43.2817 3.31034C42.7176 3.7718 40.7542 5.41679 40.2739 5.91839C39.7726 6.41999 38.3524 7.84436 37.8929 8.36588C37.4334 8.88755 36.1383 10.4323 35.9504 10.7332C35.7416 11.0341 35.637 11.3753 35.9504 11.5759C36.2637 11.7966 36.8069 11.5558 37.3916 11.0943C37.9764 10.6128 39.6683 9.14831 40.2739 8.54651C40.8588 7.94456 44.1171 4.85513 44.4095 4.61444C44.7018 4.35353 46.2056 3.14979 46.2056 3.14979C46.2056 3.14979 46.3936 2.88902 46.8323 2.88902C47.2709 2.88902 47.7096 2.96916 47.9811 3.08958C48.2526 3.18992 48.7331 3.49097 48.7331 3.49097C48.7331 3.49097 49.0463 3.61124 48.5241 3.99242C48.0018 4.3736 45.3077 6.50012 44.5766 7.28255C43.8665 8.06498 42.4043 9.69005 41.8404 10.4123C41.2975 11.1546 40.9422 11.4957 41.3601 11.9771C41.7777 12.4786 42.2791 12.3583 42.5296 12.278C42.7804 12.1979 43.6158 11.5959 44.2216 10.9739C44.8272 10.3721 46.7279 8.34581 46.9158 8.08519C47.1249 7.84436 47.8139 7.14207 47.8139 7.14207C47.8139 7.14207 47.9602 6.86124 48.357 6.86124C48.7537 6.86124 49.0045 6.92144 49.4013 7.00172C49.7982 7.10207 50.6546 7.26248 50.1742 7.76408C49.673 8.24561 48.5032 9.44936 48.2526 9.75026C48.0018 10.0512 46.9995 11.1546 46.8115 11.4957C46.6236 11.8166 46.3728 12.1979 46.6235 12.3382C46.8741 12.4988 47.5216 12.278 48.1481 11.9171C48.7957 11.5759 49.7356 10.9739 50.5501 10.2517C51.3648 9.50956 52.6806 8.32589 52.6806 8.32589C52.6806 8.32589 52.8893 7.82429 53.8503 8.04491C54.7902 8.24561 55.0198 8.36588 55.0198 8.36588C55.0198 8.36588 55.7509 8.56658 55.2704 9.00797C54.7902 9.44936 53.161 10.8938 52.5343 11.4957C51.9078 12.0775 50.007 14.0234 49.673 14.4047C49.3387 14.8058 48.4406 15.6484 48.8165 15.6886C49.1925 15.7287 52.0121 16.2904 52.6806 16.471C53.349 16.6316 55.563 17.3939 55.7509 17.4741Z" fill="#231F20"/>
</svg>
