<svg width="319" height="399" viewBox="0 0 319 399" fill="none" xmlns="http://www.w3.org/2000/svg">
<g clip-path="url(#clip0_357_1304)">
<path d="M93.9839 170.412L103.157 180.246C103.157 180.246 141.545 244.529 147.032 248.659C152.519 252.789 161.669 257.546 167.168 256.813C172.667 256.079 187.245 246.209 187.245 246.209L174.516 207.157L160.033 203.192L120.923 157.938L93.9839 170.423V170.412Z" fill="#FFBE9D"/>
<path d="M101.332 178.151C98.0725 174.234 89.6697 166.175 89.6697 166.175L86.126 162.4C85.9601 162.708 85.8416 163.039 85.7349 163.37C85.5335 163.998 85.3201 164.66 84.8342 165.11C83.9216 165.962 82.4165 165.678 81.3261 165.075C79.0387 163.796 77.5454 161.24 77.5454 158.625C77.5454 156.116 78.9321 153.666 81.0654 152.341C81.2432 151.702 81.5513 151.063 82.0372 150.436C85.0475 146.578 92.0874 147.098 92.0874 147.098L91.0326 145.607C91.0326 145.607 86.2327 142.625 78.2447 147.678C77.0477 148.436 75.6136 148.791 74.227 148.554C73.3736 148.412 72.544 148.045 72.0818 147.252C70.9203 145.276 72.0107 143.939 76.9528 140.708C81.895 137.477 87.726 136.01 91.4356 137.383C95.1452 138.755 96.4963 139.536 96.4963 139.536C96.4963 139.536 87.7734 125.477 87.2638 124.566C85.7705 121.927 85.6994 119.052 87.3586 117.88C88.4253 117.134 90.3215 116.969 92.1586 119.986C93.7467 122.602 113.409 147.276 113.409 147.276L121.468 158.708L101.344 178.175L101.332 178.151Z" fill="#FFBE9D"/>
<path d="M118.552 159.122C117.32 160.424 115.139 160.27 113.539 159.441C111.939 158.613 110.671 157.276 109.13 156.341C104.544 153.536 98.2622 154.684 93.8178 151.666C93.2015 151.24 92.5615 150.53 92.8459 149.832C93.1067 149.193 93.9482 149.063 94.6356 149.039C100.573 148.791 106.511 148.554 112.437 148.305" fill="#FFBE9D"/>
<path d="M112.437 148.317C112.437 148.246 111.749 148.211 110.505 148.199C109.26 148.199 107.471 148.199 105.243 148.258C102.932 148.317 100.312 148.388 97.4561 148.471C96.7213 148.495 95.9746 148.518 95.2043 148.542C94.4932 148.625 93.5332 148.412 92.6325 149.252C92.2058 149.702 92.1821 150.459 92.4547 150.921C92.6917 151.406 93.0473 151.726 93.4265 152.01C94.1613 152.507 94.9198 152.921 95.7495 153.24C99.0561 154.507 102.351 154.566 105.136 155.276C106.534 155.607 107.814 156.057 108.893 156.696C109.971 157.335 110.896 158.128 111.82 158.779C113.622 160.175 115.672 160.577 116.928 160.222C118.232 159.879 118.611 159.146 118.564 159.146C118.505 159.063 118.031 159.654 116.845 159.832C115.66 160.033 113.918 159.607 112.235 158.199C111.37 157.536 110.469 156.708 109.32 155.974C108.17 155.252 106.795 154.731 105.349 154.365C102.458 153.595 99.1627 153.489 96.1169 152.305C95.3584 152.021 94.6473 151.619 94.0191 151.205C93.4147 150.779 93.0947 150.175 93.391 149.915C93.6754 149.584 94.4932 149.548 95.2517 149.524C96.0102 149.489 96.7687 149.453 97.5035 149.418C100.36 149.264 102.979 149.11 105.29 148.992C107.506 148.85 109.296 148.732 110.529 148.613C111.761 148.507 112.448 148.412 112.448 148.341L112.437 148.317Z" fill="#EB996E"/>
<path d="M92.3247 147.039C92.2298 147.134 91.661 145.773 89.741 144.885C88.8047 144.459 87.5366 144.306 86.1973 144.601C84.8462 144.885 83.4596 145.56 82.0374 146.377C80.6152 147.193 79.2404 147.998 77.83 148.459C76.4315 148.909 75.0805 149.039 73.9545 148.779C72.8168 148.53 72.1175 147.749 71.8805 147.181C71.6316 146.601 71.6553 146.246 71.679 146.246C71.7383 146.235 71.8212 146.566 72.1057 147.063C72.402 147.56 73.0301 148.164 74.0494 148.329C75.0567 148.507 76.3249 148.329 77.6286 147.891C78.9441 147.442 80.2715 146.637 81.7055 145.82C83.1278 144.992 84.6092 144.294 86.067 144.022C87.5247 143.726 88.9351 143.951 89.9306 144.483C90.938 144.992 91.5662 145.69 91.9099 146.199C92.2536 146.708 92.3484 147.051 92.3128 147.063L92.3247 147.039Z" fill="#EB996E"/>
<path d="M86.7065 123.513C86.7895 123.466 87.4295 124.554 88.4606 126.294C89.6102 128.235 90.985 130.543 92.502 133.099C94.0546 135.631 95.4649 137.915 96.6501 139.844C97.7168 141.56 98.3805 142.637 98.2975 142.684C98.2264 142.732 97.4323 141.761 96.259 140.093C95.0857 138.436 93.545 136.081 91.9331 133.43C90.3332 130.779 88.9702 128.318 88.0458 126.507C87.1214 124.696 86.6236 123.537 86.6947 123.501L86.7065 123.513Z" fill="#EB996E"/>
<path d="M91.0802 152.163C91.0802 152.163 90.7128 152.246 90.061 152.341C89.4447 152.447 88.4136 152.637 87.821 153.56C87.5366 154.01 87.5247 154.589 87.8091 155.181C88.0699 155.773 88.5558 156.305 89.0536 156.921C89.5395 157.524 90.0965 158.329 90.061 159.335C90.0136 160.317 89.4328 161.228 88.5914 161.761C87.7262 162.317 86.6832 162.376 85.7944 162.152C84.9055 161.915 84.1233 161.465 83.5544 160.826C82.5114 159.572 81.8833 158.282 81.4092 157.181C80.9589 156.069 80.7337 155.098 80.71 154.424C80.6863 153.737 80.8404 153.382 80.8641 153.382C80.9233 153.382 80.8641 153.761 80.9589 154.4C81.0537 155.039 81.3381 155.939 81.8241 157.004C82.3218 158.045 83.0092 159.299 83.9929 160.436C84.941 161.465 86.8373 162.104 88.224 161.228C88.8995 160.802 89.3736 160.057 89.4091 159.323C89.4447 158.589 89.0299 157.915 88.5677 157.311C88.1054 156.708 87.584 156.116 87.2995 155.406C86.9795 154.732 87.0151 153.868 87.4299 153.323C88.2358 152.223 89.3973 152.14 90.0373 152.104C90.7128 152.081 91.0802 152.14 91.0802 152.175V152.163Z" fill="#EB996E"/>
<path d="M85.7705 161.584C85.7705 161.584 86.0549 161.82 86.1734 162.424C86.292 163.015 86.209 164.021 85.4149 164.873C84.6327 165.702 83.1868 166.175 81.7409 165.796C80.2831 165.43 78.9676 164.341 78.0906 162.921C77.2136 161.489 76.8817 159.856 77.0002 158.412C77.1069 156.956 77.6758 155.737 78.2921 154.862C78.9202 153.974 79.5958 153.406 80.0935 153.087C80.5913 152.755 80.9113 152.649 80.935 152.684C81.018 152.779 79.7735 153.382 78.6832 155.122C78.1498 155.986 77.6758 157.134 77.6047 158.459C77.5217 159.785 77.8536 161.276 78.6476 162.578C79.4417 163.879 80.6387 164.873 81.8831 165.217C83.1275 165.572 84.3838 165.217 85.0831 164.542C85.7942 163.867 85.9482 162.992 85.9127 162.459C85.8771 161.903 85.7112 161.607 85.7586 161.584H85.7705Z" fill="#EB996E"/>
<path d="M101.261 165.098C101.261 165.098 101.676 164.637 102.624 164.293C103.56 163.95 105.053 163.737 106.653 164.293L106.262 164.719C105.966 164.092 105.67 163.394 105.433 162.648C104.034 158.518 104.603 154.933 104.757 154.98C104.958 154.98 104.71 158.459 106.061 162.435C106.298 163.157 106.57 163.832 106.843 164.447L107.151 165.134L106.452 164.873C105.03 164.353 103.655 164.459 102.742 164.672C101.818 164.885 101.308 165.169 101.273 165.098H101.261Z" fill="#EB996E"/>
<path d="M86.3393 141.229C86.517 141.217 86.5882 142.554 85.6637 143.844C84.7511 145.134 83.4593 145.524 83.4238 145.347C83.3408 145.169 84.3482 144.59 85.1304 143.465C85.9363 142.353 86.1496 141.205 86.3393 141.229Z" fill="#EB996E"/>
<path d="M71.122 366.551C71.122 366.551 55.6674 369.888 41.8839 367.817C28.9418 365.876 0 367.888 0 384.906C0 403.888 38.6246 399.201 53.6881 396.184C68.7516 393.178 83.7559 390.444 83.7559 390.444L71.122 366.539V366.551Z" fill="#455A64"/>
<path d="M36.4439 390.87C36.2425 390.917 35.4128 387.959 34.5832 384.267C33.7536 380.574 33.244 377.545 33.4336 377.497C33.6351 377.45 34.4647 380.409 35.2943 384.101C36.1239 387.793 36.6336 390.823 36.4439 390.87Z" fill="#263238"/>
<path d="M41.7177 391.119C41.5162 391.142 40.9355 388.113 40.414 384.349C39.8925 380.574 39.6436 377.497 39.8451 377.474C40.0466 377.45 40.6273 380.48 41.1488 384.243C41.6703 388.006 41.9192 391.083 41.7177 391.119Z" fill="#263238"/>
<path d="M46.8022 389.13C46.6007 389.154 46.1148 386.503 45.7118 383.213C45.3089 379.923 45.1548 377.225 45.3563 377.202C45.5578 377.178 46.0437 379.829 46.4466 383.119C46.8496 386.409 47.0037 389.107 46.8022 389.13Z" fill="#263238"/>
<path d="M54.7905 387.142C54.6127 387.225 53.5105 385.012 52.7994 382.065C52.0765 379.119 52.0409 376.657 52.2305 376.633C52.4439 376.61 52.8113 379 53.5224 381.888C54.2216 384.775 54.992 387.059 54.7905 387.142Z" fill="#263238"/>
<path d="M56.5089 380.207C56.5089 380.207 57.22 380.042 58.5237 380.077C59.8274 380.113 61.7355 380.326 63.9517 381.13C64.5088 381.344 65.0895 381.604 65.6228 382.03C66.1443 382.432 66.6421 383.095 66.6658 383.912C66.6776 385.592 64.8406 386.799 63.1695 386.456C61.4866 386.136 60.1948 384.906 59.14 383.592C58.0615 382.255 57.2911 380.61 56.8526 378.847C55.9993 375.308 56.6393 371.64 58.5474 369.012C58.8318 368.693 59.2111 368.397 59.697 368.326C60.1711 368.243 60.6688 368.432 60.977 368.728C61.6051 369.332 61.8303 370.089 61.9488 370.799C62.1266 372.196 62.0318 373.509 61.7473 374.657C61.1903 376.977 60.0288 378.586 59.14 379.521C58.6896 379.994 58.2866 380.314 58.014 380.515C57.7296 380.716 57.5755 380.811 57.5637 380.787C57.5163 380.728 58.097 380.302 58.9266 379.332C59.7325 378.361 60.7755 376.764 61.2377 374.539C61.4747 373.438 61.534 372.184 61.3444 370.882C61.2496 370.267 61.0007 369.604 60.5503 369.213C60.1118 368.811 59.4837 368.93 59.057 369.462C57.3859 371.805 56.7459 375.355 57.5637 378.669C57.9666 380.338 58.7014 381.876 59.697 383.142C60.6807 384.397 61.9014 385.521 63.2762 385.781C64.5917 386.101 66.0732 385.083 66.0376 383.923C66.0376 383.355 65.6939 382.835 65.2436 382.468C64.7932 382.089 64.2599 381.829 63.7503 381.616C61.6288 380.764 59.7681 380.48 58.5 380.361C57.22 380.243 56.497 380.267 56.497 380.207H56.5089Z" fill="#263238"/>
<path d="M82.2269 387.935C82.2269 387.935 82.0965 387.994 81.8358 388.054C81.5395 388.125 81.1484 388.219 80.6743 388.338C79.5958 388.586 78.1025 388.917 76.1944 389.355C72.2952 390.207 66.6419 391.415 59.6257 392.764C52.5977 394.101 44.2185 395.651 34.8083 396.929C30.115 397.556 25.1017 398.124 19.8989 397.675C17.3033 397.485 14.6604 397.036 12.0886 396.184C10.8086 395.722 9.52863 395.225 8.34346 394.527C7.14644 393.817 5.99683 393.048 5.0487 391.876L5.10795 391.935C4.63389 391.474 4.13612 390.941 3.76871 390.326C2.19244 387.805 2.14503 384.681 2.9865 382.018C3.85168 379.308 5.7835 377.143 7.94051 375.557C10.1212 373.971 12.5508 372.87 14.9804 372.078C16.213 371.722 17.41 371.308 18.6307 371.024C19.8633 370.776 21.0603 370.456 22.2692 370.291C31.952 368.764 40.7578 369.545 48.0822 369.545C51.7562 369.616 55.0628 369.509 57.9665 369.332C60.8701 369.119 63.359 368.788 65.3619 368.397C66.3575 368.184 67.2463 368.007 68.0286 367.841C68.7752 367.628 69.4152 367.45 69.9485 367.297C70.4344 367.166 70.8256 367.06 71.1337 366.965C71.4063 366.894 71.5367 366.87 71.5485 366.882C71.5485 366.894 71.4181 366.953 71.1574 367.036C70.8611 367.143 70.47 367.273 69.9959 367.439C69.4626 367.616 68.8345 367.817 68.0878 368.054C67.3056 368.243 66.4167 368.444 65.4212 368.681C63.4064 369.119 60.9175 369.486 58.002 369.746C55.0865 369.959 51.7562 370.101 48.0822 370.066C40.746 370.125 31.952 369.415 22.3877 370.965C21.1907 371.131 20.0174 371.462 18.8085 371.699C17.6115 371.971 16.4263 372.397 15.2174 372.74C12.8353 373.521 10.4768 374.61 8.37902 376.137C6.31683 377.663 4.49167 379.722 3.6976 382.243C2.90354 384.728 2.97465 387.663 4.4087 389.935C4.74055 390.503 5.19092 390.977 5.61758 391.391L5.64128 391.414L5.67684 391.45C6.45905 392.42 7.59681 393.225 8.73457 393.888C9.87233 394.562 11.1168 395.048 12.3493 395.497C14.85 396.326 17.4337 396.775 19.9818 396.965C25.1017 397.426 30.0558 396.882 34.749 396.266C44.1356 395.024 52.5266 393.545 59.5546 392.267C66.5826 390.977 72.2477 389.852 76.1707 389.083C78.0906 388.704 79.5958 388.409 80.6743 388.196C81.1602 388.101 81.5395 388.03 81.8476 387.983C82.1084 387.935 82.2506 387.923 82.2506 387.935H82.2269Z" fill="#263238"/>
<path d="M25.7299 397.083C25.6232 397.083 25.5284 395.568 25.3506 393.142C25.1728 390.704 24.8884 387.355 24.3906 383.663C23.8929 379.983 23.2884 376.669 22.8144 374.267C22.3403 371.876 22.0321 370.397 22.1388 370.361C22.2336 370.338 22.7195 371.77 23.324 374.148C23.9284 376.527 24.6158 379.841 25.1254 383.556C25.6232 387.272 25.8365 390.657 25.8721 393.107C25.9195 395.556 25.8247 397.071 25.718 397.071L25.7299 397.083Z" fill="#263238"/>
<g opacity="0.4">
<path d="M66.3696 367.367L76.1591 391.852L83.7561 390.456L69.2022 366.551L66.3696 367.367Z" fill="black"/>
</g>
<path d="M165.687 310.244L188.679 259.014L175.369 215.062C171.328 201.725 172.276 187.394 178.024 174.696L200.471 131.252L220.512 124.116L267.54 117.856C268.37 118.128 270.728 118.27 284.666 122.898C296.375 126.779 306.283 134.744 312.6 145.323L274.604 255.984C274.604 255.984 300.369 312.291 297.145 338.101L165.687 310.244Z" fill="#FCC62D"/>
<path d="M204.24 130.105C204.24 130.105 177.929 135.915 168.341 171.761L156.537 209.926L178.131 211.251L204.24 130.093V130.105Z" fill="#FCC62D"/>
<path d="M176.175 212.506C176.175 212.506 176.081 212.328 175.938 211.973C175.808 211.618 175.583 211.097 175.369 210.399C174.955 209.003 174.457 206.944 174.255 204.352C173.829 199.169 174.86 191.82 178.297 184.624C179.15 182.838 180.11 181.133 181.082 179.548C182.03 177.95 182.931 176.4 183.749 174.897C185.396 171.903 186.557 169.063 187.363 166.601C188.169 164.151 188.762 162.14 189.189 160.755C189.39 160.116 189.556 159.583 189.686 159.157C189.805 158.791 189.876 158.613 189.9 158.613C189.923 158.613 189.876 158.814 189.793 159.193C189.686 159.619 189.556 160.163 189.39 160.814C189.023 162.211 188.501 164.246 187.731 166.731C186.96 169.205 185.835 172.116 184.187 175.145C183.381 176.66 182.481 178.222 181.532 179.832C180.561 181.429 179.636 183.098 178.783 184.873C175.381 191.985 174.315 199.228 174.623 204.352C174.765 206.92 175.204 208.967 175.559 210.376C175.962 211.76 176.211 212.529 176.164 212.541L176.175 212.506Z" fill="#263238"/>
<path d="M110.873 331.249C110.754 331.415 98.4046 322.433 83.3174 311.191C68.2184 299.948 56.0704 290.694 56.2007 290.528C56.3193 290.362 68.6569 299.345 83.7678 310.599C98.8668 321.841 111.003 331.096 110.884 331.249H110.873Z" fill="#455A64"/>
<path d="M295.024 332.942L257.691 302.303C253.579 279.475 232.506 262.41 208.092 264.635C198.883 265.475 190.149 269.049 183.002 274.895L161.361 291.83C127.714 282.67 76.5738 268.351 50.2987 260.967C39.5492 257.949 28.0293 259.688 18.6546 265.748L18.1569 266.067C4.39707 274.955 -2.29913 291.51 1.4223 307.451C3.78078 317.569 10.0977 326.315 18.9628 331.747C32.2367 339.865 52.7994 352.397 70.4702 362.953L68.1236 364.787L83.7441 390.444L115.91 380.539C137.646 377.438 183.547 371.486 183.547 371.486L170.427 363.758L173.426 362.835C198.421 384.101 228.987 393.888 266.829 377.391C285.507 368.645 297.169 347.64 295 332.942H295.024Z" fill="#263238"/>
<path d="M231.06 329.533C231.06 329.533 230.966 329.64 230.752 329.817C230.503 330.019 230.195 330.267 229.816 330.587C228.939 331.285 227.718 332.267 226.154 333.498C225.348 334.125 224.471 334.823 223.499 335.593C222.527 336.362 221.39 337.072 220.204 337.9C219.007 338.717 217.739 339.592 216.388 340.516C215.713 340.977 215.025 341.462 214.302 341.936C213.556 342.385 212.797 342.835 212.027 343.308C208.91 345.166 205.532 347.297 201.716 349.225C199.819 350.22 197.888 351.296 195.849 352.302C193.787 353.273 191.677 354.279 189.497 355.308C180.75 359.284 170.961 363.296 160.46 366.858C139.482 374.077 120.081 379.272 106.191 383.485C102.707 384.503 99.566 385.462 96.8164 386.337C94.0668 387.189 91.6846 387.923 89.7647 388.574C87.8684 389.189 86.3869 389.675 85.3203 390.018C84.8462 390.16 84.4551 390.278 84.1588 390.373C83.8981 390.444 83.7559 390.479 83.7559 390.467C83.7559 390.456 83.8744 390.396 84.1351 390.302C84.4314 390.195 84.8107 390.053 85.2729 389.876C86.3277 389.497 87.8091 388.976 89.6817 388.302C91.5898 387.604 93.9483 386.834 96.6979 385.947C99.4356 385.036 102.564 384.042 106.049 382.988C119.915 378.657 139.281 373.379 160.223 366.172C170.712 362.61 180.477 358.634 189.224 354.705C191.393 353.687 193.514 352.705 195.565 351.734C197.603 350.74 199.535 349.675 201.431 348.705C205.248 346.811 208.625 344.705 211.754 342.882C212.536 342.421 213.295 341.971 214.041 341.533C214.764 341.072 215.464 340.598 216.139 340.149C217.49 339.249 218.782 338.385 219.979 337.592C221.164 336.776 222.314 336.09 223.298 335.332C224.281 334.587 225.17 333.912 225.988 333.297C227.576 332.101 228.832 331.167 229.721 330.492C230.124 330.196 230.456 329.96 230.705 329.782C230.93 329.628 231.049 329.545 231.06 329.557V329.533Z" fill="#455A64"/>
<path d="M233.846 341.522C233.846 341.522 233.455 341.782 232.684 342.125C231.926 342.48 230.8 342.93 229.39 343.451C226.581 344.492 222.611 345.735 218.131 346.705C213.651 347.664 209.514 348.161 206.516 348.362C205.023 348.468 203.802 348.504 202.96 348.504C202.119 348.504 201.657 348.48 201.657 348.433C201.657 348.314 203.494 348.184 206.469 347.853C209.431 347.522 213.52 346.953 217.977 345.995C222.421 345.036 226.379 343.888 229.224 342.965C232.068 342.054 233.81 341.415 233.846 341.522Z" fill="#455A64"/>
<path d="M178.403 279.215C178.534 279.381 153.941 298.67 123.495 322.291C93.0357 345.924 68.2538 364.953 68.1353 364.788C68.0049 364.622 92.5853 345.344 123.044 321.699C153.491 298.067 178.273 279.049 178.403 279.203V279.215Z" fill="#455A64"/>
<path d="M266.805 361.995C266.805 361.995 266.746 361.722 266.734 361.19C266.723 360.574 266.699 359.817 266.675 358.906C266.651 356.918 266.568 354.042 266.391 350.504C266.047 343.415 265.158 333.64 263.167 323.001C261.164 312.362 258.462 302.919 256.21 296.185C255.084 292.824 254.124 290.114 253.425 288.256C253.117 287.392 252.856 286.682 252.655 286.102C252.489 285.605 252.406 285.345 252.441 285.333C252.465 285.333 252.595 285.57 252.809 286.043C253.058 286.611 253.354 287.297 253.721 288.138C254.515 289.96 255.558 292.647 256.755 295.996C259.149 302.694 261.958 312.161 263.973 322.847C265.964 333.533 266.782 343.368 266.971 350.48C267.066 354.042 267.066 356.918 266.995 358.906C266.96 359.817 266.924 360.574 266.9 361.19C266.865 361.711 266.841 361.983 266.805 361.983V361.995Z" fill="#455A64"/>
<path d="M171.992 361.604C171.992 361.604 172.11 361.675 172.312 361.841C172.549 362.042 172.833 362.291 173.189 362.586C173.971 363.237 175.05 364.279 176.543 365.486C179.542 367.888 183.998 371.261 190.042 374.551C196.075 377.841 203.707 380.977 212.56 383C213.663 383.296 214.788 383.497 215.938 383.687C217.088 383.888 218.237 384.113 219.411 384.29C221.769 384.539 224.175 384.929 226.64 385C231.57 385.367 236.702 385.154 241.893 384.551C243.185 384.373 244.477 384.195 245.757 384.018C247.025 383.758 248.281 383.509 249.526 383.249C252.026 382.752 254.444 382.054 256.791 381.308C261.484 379.77 265.857 377.852 269.792 375.592C277.697 371.119 283.623 365.225 287.416 359.521C291.267 353.829 293.057 348.468 293.922 344.752C294.337 342.883 294.562 341.403 294.681 340.397C294.74 339.936 294.787 339.557 294.823 339.249C294.858 338.989 294.882 338.859 294.894 338.859C294.906 338.859 294.906 338.989 294.894 339.249C294.882 339.557 294.858 339.936 294.835 340.409C294.764 341.427 294.598 342.918 294.218 344.811C293.448 348.587 291.718 354.03 287.89 359.829C284.121 365.64 278.148 371.663 270.159 376.231C266.189 378.539 261.768 380.491 257.028 382.054C254.657 382.811 252.216 383.521 249.692 384.03C248.435 384.29 247.155 384.551 245.875 384.811C244.584 384.988 243.28 385.178 241.976 385.355C236.726 385.971 231.547 386.172 226.569 385.793C224.08 385.722 221.651 385.32 219.268 385.059C218.083 384.87 216.922 384.645 215.772 384.432C214.622 384.231 213.473 384.018 212.371 383.722C203.446 381.639 195.778 378.409 189.746 375.036C183.701 371.651 179.269 368.196 176.318 365.711C174.848 364.456 173.805 363.379 173.059 362.681C172.727 362.35 172.454 362.089 172.229 361.876C172.051 361.687 171.956 361.592 171.968 361.58L171.992 361.604Z" fill="#455A64"/>
<path d="M189.639 369.202C183.156 365.746 175.891 367.793 169.681 369.876C165.556 371.261 161.266 373.462 157.071 372.29C154.037 371.438 151.785 368.989 149.474 366.858C140.135 358.255 127.264 353.569 114.559 354.362C110.944 354.586 107.424 356.042 104.971 358.693C98.6063 365.58 103.406 374.527 109.095 380.326C119.133 390.539 132.81 397.13 147.068 398.621C158.92 399.852 175.216 398.219 187.233 393.083C194.641 389.911 198.445 381.19 194.558 374.136C193.42 372.077 191.772 370.349 189.639 369.213V369.202Z" fill="#455A64"/>
<g opacity="0.4">
<path d="M189.627 374.705C183.144 371.249 175.879 373.296 169.669 375.379C165.544 376.764 161.254 378.965 157.059 377.793C154.025 376.941 151.773 374.491 149.462 372.361C140.123 363.758 127.252 359.072 114.547 359.864C110.932 360.089 107.412 361.545 104.959 364.196C103.548 365.722 102.719 367.355 102.292 369.024C103.228 373.166 106.025 377.202 109.083 380.314C119.121 390.527 132.798 397.118 147.056 398.609C158.908 399.84 175.204 398.207 187.221 393.071C191.677 391.166 194.806 387.249 195.766 382.894C195.517 381.781 195.126 380.693 194.546 379.628C193.408 377.568 191.76 375.841 189.627 374.705Z" fill="black"/>
</g>
<path d="M195.778 382.894C195.66 382.929 195.695 381.308 194.19 379.06C193.432 377.959 192.317 376.716 190.729 375.675C189.165 374.622 187.126 373.699 184.768 373.403C179.956 372.835 174.386 374.858 168.187 376.539C165.13 377.344 161.788 378.586 158.125 378.125C156.336 377.888 154.546 377.296 152.946 376.338C151.358 375.391 149.9 374.208 148.502 372.989C143.169 367.782 136.84 364.527 130.784 362.48C127.761 361.462 124.787 360.799 121.966 360.433C119.145 360.066 116.502 360.018 114.12 360.385C111.75 360.752 109.688 361.533 108.052 362.504C106.416 363.486 105.208 364.634 104.331 365.651C102.612 367.734 102.031 369.154 101.937 369.095C101.937 369.095 102.399 367.628 104.07 365.427C104.923 364.35 106.132 363.143 107.791 362.078C109.45 361.036 111.572 360.196 114.013 359.77C116.455 359.344 119.181 359.367 122.049 359.711C124.917 360.042 127.951 360.705 131.032 361.711C134.114 362.717 137.255 364.089 140.336 365.805C141.853 366.693 143.417 367.616 144.863 368.752C146.309 369.876 147.672 371.119 149.071 372.326C150.469 373.533 151.88 374.681 153.397 375.592C154.902 376.503 156.549 377.048 158.244 377.284C161.633 377.734 164.881 376.574 167.986 375.77C174.149 374.16 179.826 372.148 184.851 372.799C189.84 373.592 193.052 376.586 194.486 378.882C195.221 380.054 195.541 381.095 195.683 381.805C195.802 382.515 195.814 382.894 195.79 382.906L195.778 382.894Z" fill="#263238"/>
<path d="M195.778 382.894C195.66 382.929 195.695 381.308 194.19 379.06C193.432 377.959 192.317 376.716 190.729 375.675C189.165 374.622 187.126 373.699 184.768 373.403C179.956 372.835 174.386 374.858 168.187 376.539C165.13 377.344 161.788 378.586 158.125 378.125C156.336 377.888 154.546 377.296 152.946 376.338C151.358 375.391 149.9 374.208 148.502 372.989C143.169 367.782 136.84 364.527 130.784 362.48C127.761 361.462 124.787 360.799 121.966 360.433C119.145 360.066 116.502 360.018 114.12 360.385C111.75 360.752 109.688 361.533 108.052 362.504C106.416 363.486 105.208 364.634 104.331 365.651C102.612 367.734 102.031 369.154 101.937 369.095C101.937 369.095 102.399 367.628 104.07 365.427C104.923 364.35 106.132 363.143 107.791 362.078C109.45 361.036 111.572 360.196 114.013 359.77C116.455 359.344 119.181 359.367 122.049 359.711C124.917 360.042 127.951 360.705 131.032 361.711C134.114 362.717 137.255 364.089 140.336 365.805C141.853 366.693 143.417 367.616 144.863 368.752C146.309 369.876 147.672 371.119 149.071 372.326C150.469 373.533 151.88 374.681 153.397 375.592C154.902 376.503 156.549 377.048 158.244 377.284C161.633 377.734 164.881 376.574 167.986 375.77C174.149 374.16 179.826 372.148 184.851 372.799C189.84 373.592 193.052 376.586 194.486 378.882C195.221 380.054 195.541 381.095 195.683 381.805C195.802 382.515 195.814 382.894 195.79 382.906L195.778 382.894Z" fill="#263238"/>
<path d="M115.412 381.331C115.352 381.237 116.597 380.326 118.73 379.036C120.852 377.746 123.874 376.077 127.311 374.456C130.76 372.846 133.96 371.58 136.318 370.775C138.677 369.971 140.17 369.58 140.205 369.687C140.241 369.805 138.831 370.397 136.543 371.343C134.256 372.29 131.103 373.639 127.69 375.237C124.277 376.846 121.231 378.408 119.038 379.556C116.846 380.704 115.483 381.426 115.412 381.32V381.331Z" fill="#263238"/>
<path d="M117.64 387.805C117.533 387.592 123.199 384.633 130.298 381.213C137.397 377.793 143.228 375.19 143.335 375.403C143.441 375.616 137.776 378.574 130.677 381.994C123.59 385.414 117.747 388.018 117.64 387.805Z" fill="#263238"/>
<path d="M144.484 390.609C144.354 390.811 137.456 386.704 129.065 381.426C120.674 376.148 113.978 371.71 114.108 371.497C114.239 371.296 121.136 375.403 129.527 380.681C137.918 385.959 144.615 390.396 144.484 390.598V390.609Z" fill="#263238"/>
<path d="M148.371 383.9C148.288 383.994 147.02 383.107 144.994 381.639C142.967 380.172 140.158 378.16 137.029 375.983C133.889 373.817 131.009 371.9 128.935 370.515C126.849 369.131 125.569 368.255 125.628 368.148C125.687 368.054 127.086 368.74 129.255 369.994C131.423 371.249 134.374 373.095 137.527 375.272C140.68 377.45 143.429 379.568 145.373 381.154C147.317 382.74 148.454 383.805 148.383 383.9H148.371Z" fill="#263238"/>
<path d="M197.887 117.856C197.745 117.821 198.492 116.708 198.148 114.602C197.97 113.572 197.508 112.342 196.667 111.099C195.825 109.868 194.569 108.661 193.147 107.336C191.725 106.034 190.125 104.46 188.928 102.424C187.719 100.401 186.818 97.9867 186.474 95.3595C186.107 92.7323 186.356 89.8566 187.28 87.1348C188.169 84.3893 189.579 81.7976 190.966 79.1822C192.365 76.5787 193.633 74.0107 194.356 71.3835C195.102 68.7682 195.162 66.1292 194.51 63.7268C193.194 58.8985 190.314 55.0879 188.856 51.4193C187.256 47.7863 187.102 44.378 187.659 42.2242C187.92 41.1355 188.299 40.3544 188.596 39.8574C188.892 39.3603 189.117 39.1355 189.141 39.1592C189.259 39.2183 188.501 40.2242 188.145 42.3307C187.766 44.4254 188.027 47.5969 189.686 51.0643C191.191 54.5791 194.166 58.2831 195.659 63.431C196.394 65.999 196.347 68.9457 195.576 71.7149C194.83 74.5077 193.502 77.1704 192.104 79.7858C190.705 82.413 189.331 84.9336 188.477 87.5253C187.588 90.1052 187.351 92.7323 187.648 95.2057C187.944 97.679 188.738 99.9512 189.84 101.88C190.93 103.821 192.376 105.324 193.775 106.685C195.162 108.046 196.418 109.347 197.271 110.708C198.113 112.069 198.527 113.418 198.646 114.531C198.753 115.655 198.563 116.543 198.338 117.087C198.124 117.643 197.911 117.868 197.887 117.856Z" fill="#263238"/>
<path d="M265.466 94.4363C267.125 98.6611 271.652 101.478 276.203 101.489C280.754 101.501 285.128 98.9096 287.652 95.1345C290.188 91.3594 290.935 86.5429 290.117 82.0696C289.738 80.046 289.063 78.0342 289.3 75.9869C289.631 73.0875 291.741 70.697 292.464 67.8805C293.768 62.7918 290.046 57.4191 285.199 55.3954C280.352 53.36 274.793 53.9872 269.732 55.3954" fill="#263238"/>
<path d="M191.677 35.6208C187.007 40.3071 188.785 46.4609 190.966 50.6265C193.147 54.7921 195.766 59.0169 195.813 63.7151C195.861 68.5197 193.218 72.8865 191.902 77.5137C190.243 83.3361 190.741 89.762 193.289 95.253C195.209 99.395 198.207 102.969 200.151 107.099C202.095 111.229 202.818 116.436 200.175 120.152C202.699 119.75 204.797 117.833 205.923 115.549C207.049 113.265 207.333 110.649 207.274 108.093C207.072 98.4128 202.426 89.0165 203.588 79.4071C204.263 73.8214 206.895 68.4605 206.515 62.8393C206.148 57.2063 202.829 52.2714 200.435 47.1473C198.041 42.0349 196.631 35.6563 199.819 30.9937" fill="#263238"/>
<path d="M203.149 17.266C197.425 17.9997 191.76 20.9938 188.999 26.047C186.237 31.1001 187.185 38.248 191.914 41.5497C196.37 44.6621 202.687 43.6325 207.262 40.6976C210.64 38.532 213.449 35.3486 214.681 31.5262C215.902 27.7156 215.392 23.2659 212.903 20.1181C210.426 16.9702 205.899 15.4199 202.142 16.84" fill="#263238"/>
<path d="M198.48 16.6742C201.004 9.7276 207.191 4.48508 214.16 1.99991C221.129 -0.485265 228.808 -0.437928 236.074 0.934832C243.35 2.29576 250.307 4.93477 257.229 7.55012C262.266 9.45542 267.409 11.4199 271.51 14.9228C275.563 18.3784 278.325 23.1475 280.174 28.1415C283.634 37.526 283.777 44.4016 279.723 53.5494C277.957 57.5257 279.391 61.9872 277.815 66.0463C276.239 70.1054 268.903 74.9337 271.178 78.6497" fill="#263238"/>
<path d="M267.551 117.856L264.529 28.7924C264.387 24.8043 261.223 21.5854 257.229 21.3724L215.866 13.2778C202.723 12.6033 194.901 29.1356 194.794 42.2833C194.664 56.8866 195.078 74.7088 197.401 85.4661C202.059 107.111 218.96 108.981 218.96 108.981C218.96 108.933 219.434 117.43 219.884 125.051L219.173 158.589L267.563 117.844L267.551 117.856Z" fill="#FFBE9D"/>
<path d="M200.423 57.9873C200.447 59.4665 201.727 60.6618 203.28 60.6618C204.82 60.6618 206.065 59.4665 206.029 57.9873C206.005 56.508 204.725 55.3127 203.173 55.3127C201.62 55.3127 200.388 56.508 200.411 57.9991L200.423 57.9873Z" fill="#263238"/>
<path d="M199.072 49.9163C199.44 50.2595 201.478 48.5791 204.5 48.4252C207.511 48.224 209.81 49.656 210.118 49.2654C210.272 49.0879 209.881 48.4489 208.874 47.8098C207.89 47.159 206.231 46.5673 204.358 46.6856C202.486 46.7921 200.933 47.5732 200.068 48.3305C199.179 49.0879 198.895 49.7743 199.084 49.9282L199.072 49.9163Z" fill="#263238"/>
<path d="M228.358 57.5494C228.381 59.0286 229.661 60.2239 231.214 60.2239C232.767 60.2239 233.999 59.0286 233.964 57.5494C233.94 56.0701 232.66 54.863 231.107 54.8748C229.555 54.8748 228.322 56.0819 228.358 57.5612V57.5494Z" fill="#263238"/>
<path d="M228.844 50.295C229.211 50.6382 231.25 48.9577 234.272 48.8039C237.282 48.6027 239.581 50.0346 239.89 49.6441C240.044 49.4666 239.653 48.8276 238.645 48.1885C237.661 47.5376 236.002 46.9459 234.13 47.0643C232.245 47.1708 230.704 47.9518 229.839 48.7092C228.95 49.4666 228.678 50.153 228.856 50.3068L228.844 50.295Z" fill="#263238"/>
<path d="M219.102 73.2296C219.102 73.0521 217.217 72.8391 214.16 72.6142C213.389 72.5787 212.643 72.4604 212.489 71.9397C212.275 71.3953 212.56 70.5432 212.88 69.632C213.508 67.7267 214.16 65.7386 214.835 63.6558C217.549 55.147 219.469 48.1649 219.126 48.0584C218.782 47.9519 216.305 54.7683 213.591 63.2771C212.939 65.3717 212.323 67.3717 211.73 69.2888C211.481 70.1764 211.043 71.1941 211.493 72.3302C211.73 72.8982 212.323 73.2769 212.82 73.3834C213.318 73.5018 213.757 73.4899 214.136 73.4899C217.206 73.4899 219.102 73.3953 219.102 73.2296Z" fill="#263238"/>
<path d="M218.948 108.992C218.948 108.992 233.703 109.146 247.807 99.6079C247.807 99.6079 241.229 115.016 219.244 114.152L218.948 108.981V108.992Z" fill="#EB996E"/>
<path d="M227.018 41.5496C227.362 42.3543 230.349 41.7981 233.916 42.0348C237.484 42.2004 240.399 43.0762 240.826 42.3188C241.015 41.9519 240.482 41.2182 239.285 40.4845C238.1 39.7508 236.227 39.0999 234.094 38.9815C231.961 38.8632 230.029 39.3011 228.773 39.9046C227.504 40.4963 226.888 41.1709 227.03 41.5614L227.018 41.5496Z" fill="#263238"/>
<path d="M199.795 42.5555C200.364 43.2064 202.402 42.3898 204.903 42.2241C207.392 41.9638 209.549 42.4372 209.988 41.6916C210.177 41.3366 209.81 40.662 208.85 40.0703C207.902 39.4786 206.349 39.0289 204.631 39.1709C202.912 39.3129 201.466 40.023 200.637 40.7685C199.795 41.5141 199.534 42.236 199.795 42.5555Z" fill="#263238"/>
<path d="M220.773 80.0815C221.709 78.6969 223.44 77.8567 225.217 77.9513C226.45 78.0223 227.706 78.543 228.5 79.4898C229.294 80.4365 229.531 81.8448 228.903 82.827C228.204 83.9394 226.628 84.2708 225.265 83.9631C223.902 83.6554 222.693 82.8388 221.555 82.0104C221.235 81.7856 220.915 81.5489 220.702 81.2176C220.488 80.898 220.429 80.4602 220.654 80.1761" fill="#EB996E"/>
<path d="M227.6 74.8745C227.137 74.8745 227.303 77.9277 224.803 80.2235C222.314 82.5312 219.043 82.3655 219.043 82.7915C219.007 82.9809 219.801 83.3478 221.176 83.3123C222.527 83.2886 224.471 82.7442 226 81.3359C227.517 79.9277 228.109 78.1171 228.145 76.8626C228.192 75.5845 227.813 74.839 227.6 74.8745Z" fill="#263238"/>
<path d="M198.113 22.5321C199.547 29.3841 210.533 29.8929 217.336 28.1888C222.184 33.8337 230.065 36.7094 237.413 35.5141C238.409 35.3485 239.463 35.1236 240.411 35.4668C241.419 35.8337 242.094 36.7449 242.782 37.5733C245.863 41.2419 250.343 43.7034 255.096 44.3188C256.411 51.1589 262.313 56.8866 269.211 57.9872C269.211 57.9872 271.392 56.7564 270.1 47.9755C268.808 39.1946 268.737 20.7925 268.737 20.7925L244.192 11.2897L215.286 7.57373C215.286 7.57373 195.695 10.9583 198.125 22.5439L198.113 22.5321Z" fill="#263238"/>
<path d="M279.368 54.5553C279.178 54.5908 279.32 52.1411 277.531 48.5081C276.63 46.7211 275.184 44.6856 272.944 43.0289C270.728 41.3721 267.706 40.094 264.292 39.9401H263.913L263.795 39.5496C262.728 36.1295 260.867 32.4136 257.573 29.8575C254.396 27.3486 249.395 26.2835 245.496 28.5084L244.856 28.8752L244.559 28.1652C244.453 27.9167 244.346 27.6563 244.239 27.3841C241.62 21.2185 235.256 17.5263 229.543 17.2896C228.097 17.2304 226.723 17.3843 225.324 17.6446C223.926 17.8813 222.432 18.0943 220.998 17.692C219.541 17.2778 218.498 16.2837 217.621 15.4198C216.744 14.5204 215.949 13.7275 215.025 13.1476C211.304 10.769 207.333 11.0885 205.046 11.7985C202.664 12.5441 201.609 13.55 201.526 13.4317C201.502 13.3962 201.751 13.1595 202.273 12.7216C202.83 12.3429 203.659 11.763 204.88 11.3252C207.227 10.4376 211.398 9.90508 215.511 12.3784C217.609 13.5382 218.948 16.0115 221.271 16.6624C223.594 17.2659 226.45 15.905 229.591 16.1062C235.742 16.3192 242.557 20.189 245.425 26.8871C245.543 27.1829 245.662 27.467 245.768 27.7391L244.832 27.396C249.371 24.8398 254.859 26.106 258.331 28.8752C261.898 31.7036 263.783 35.6562 264.838 39.2301L264.34 38.8396C268.014 39.0644 271.178 40.4963 273.478 42.307C275.8 44.1294 277.246 46.3306 278.088 48.224C278.941 50.1293 279.237 51.7625 279.356 52.8512C279.463 53.9518 279.403 54.5435 279.356 54.5435L279.368 54.5553Z" fill="#455A64"/>
<path d="M240.304 33.5971C240.328 33.6681 239.712 33.9639 238.538 34.2953C237.365 34.6266 235.587 34.9225 233.383 34.8752C229.033 34.8397 222.598 32.9817 218.035 27.7037L218.841 27.8457C218.616 27.964 218.379 28.0824 218.142 28.2125C214.93 29.7865 211.422 30.1533 208.4 29.6681C205.354 29.1948 202.829 27.8575 201.052 26.4256C199.25 24.9936 198.136 23.467 197.484 22.3783C196.844 21.2777 196.631 20.6032 196.702 20.5677C196.904 20.4257 198.053 23.1002 201.597 25.6919C203.363 26.9463 205.745 28.106 208.566 28.4847C211.374 28.8634 214.622 28.4847 217.561 27.041C217.786 26.9226 218 26.8161 218.201 26.7096L218.675 26.4611L219.007 26.8516C223.262 31.7864 229.259 33.7036 233.419 33.9639C237.661 34.2834 240.245 33.3485 240.304 33.5971Z" fill="#455A64"/>
<path d="M227.268 21.3842C227.244 21.7629 224.068 21.6682 220.394 22.757C216.708 23.7984 214.077 25.5616 213.852 25.254C213.615 25.0173 216.08 22.6386 220.038 21.5144C223.985 20.3546 227.339 21.0647 227.268 21.3842Z" fill="#455A64"/>
<path d="M218.948 21.1239C218.676 21.3724 217.514 20.5085 216.044 19.5736C214.587 18.6269 213.319 17.9169 213.425 17.5737C213.52 17.2423 215.12 17.4435 216.744 18.4849C218.367 19.5263 219.221 20.8872 218.948 21.1239Z" fill="#455A64"/>
<path d="M253.638 31.9048C253.519 32.2717 250.711 31.5262 247.226 31.8457C243.742 32.106 241.087 33.3013 240.921 32.9699C240.72 32.6977 243.327 30.8634 247.119 30.5558C250.912 30.2244 253.78 31.609 253.638 31.9048Z" fill="#455A64"/>
<path d="M260.346 43.2537C260.381 43.585 256.245 43.9874 251.41 42.5791C246.562 41.1945 243.279 38.6502 243.481 38.3898C243.682 38.0585 247.131 40.023 251.765 41.3365C256.387 42.6975 260.346 42.875 260.346 43.2537Z" fill="#455A64"/>
<path d="M275.741 50.7683C275.469 51.0287 273.323 48.8867 269.863 47.9044C266.426 46.863 263.463 47.5139 263.368 47.1352C263.202 46.8394 266.367 45.5021 270.23 46.6619C274.094 47.7743 276.049 50.6026 275.741 50.7683Z" fill="#455A64"/>
<path d="M273.548 19.4434C273.442 19.4789 273.157 18.7333 272.316 17.6091C271.474 16.4967 269.957 15.1121 267.694 14.0115C263.19 11.8222 256.091 10.4613 248.375 10.8045C240.624 11.1477 233.75 13.0293 228.879 14.5086C223.997 16.0352 221.01 17.1476 220.939 16.9582C220.903 16.8754 221.614 16.4967 222.918 15.905C224.234 15.3133 226.154 14.5086 228.583 13.6447C233.419 11.9287 240.364 9.86957 248.316 9.51455C256.245 9.17136 263.474 10.6861 268.12 13.2068C270.443 14.4731 271.972 16.0707 272.731 17.3251C273.489 18.6032 273.608 19.4197 273.548 19.4434Z" fill="#455A64"/>
<path d="M275.99 31.1712C275.753 31.2659 275.077 28.5322 272.28 25.2068C269.554 21.8932 264.446 18.2956 257.987 16.8282C251.516 15.3844 245.389 15.9406 241.051 16.485C236.701 17.053 234.011 17.5738 233.964 17.3726C233.928 17.2187 236.536 16.3785 240.909 15.5738C245.247 14.8046 251.516 14.059 258.272 15.5738C265.027 17.1004 270.325 21.0175 272.991 24.6387C274.342 26.4375 275.16 28.0943 275.551 29.2777C275.954 30.4611 276.061 31.1475 275.99 31.1712Z" fill="#455A64"/>
<path d="M194.628 44.8988C194.604 45.0171 192.601 44.4727 190.409 42.1059C188.264 39.8456 186.107 35.4196 187.114 30.4729C188.193 25.5381 191.938 22.3429 194.818 21.1358C197.769 19.8577 199.831 20.1654 199.795 20.2719C199.831 20.5086 197.864 20.5559 195.221 21.9523C192.625 23.2778 189.342 26.3191 188.382 30.7333C187.481 35.1474 189.271 39.2539 191.108 41.5142C192.969 43.8573 194.747 44.6857 194.628 44.8988Z" fill="#455A64"/>
<path d="M285.756 74.1527C285.637 73.9515 287.842 72.7918 290.982 70.4368C292.511 69.2415 294.218 67.6321 295.391 65.4073C296.576 63.218 296.955 60.3423 295.77 57.7151C294.644 55.0879 292.44 53.1471 290.153 52.2714C287.818 51.3956 285.459 51.4548 283.587 51.8572C279.794 52.7092 277.945 54.5317 277.803 54.3187C277.756 54.2595 278.147 53.7625 279.036 53.0643C279.936 52.3897 281.371 51.5021 283.362 50.9578C285.329 50.4252 287.913 50.2241 290.556 51.1471C293.187 52.082 295.675 54.224 296.955 57.2062C298.33 60.1766 297.821 63.6085 296.446 65.9635C295.095 68.3776 293.187 70.0226 291.527 71.1705C289.856 72.3184 288.399 73.0403 287.391 73.5255C286.384 73.9989 285.803 74.2237 285.756 74.1409V74.1527Z" fill="#263238"/>
<path d="M286.775 74.2711C286.858 74.2356 287.226 74.9102 287.783 76.1527C288.34 77.4072 289.11 79.2414 289.833 81.5964C290.544 83.9514 291.231 86.8626 291.208 90.188C291.196 93.4661 290.461 97.2294 288.257 100.484C286.04 103.714 282.592 105.785 279.202 106.211C275.777 106.72 272.648 105.241 270.93 103.395C269.128 101.549 268.441 99.4778 268.37 98.0814C268.275 96.6613 268.583 95.9158 268.642 95.9394C268.761 95.9513 268.642 96.7205 268.867 98.0222C269.081 99.3122 269.851 101.158 271.569 102.756C273.241 104.365 275.978 105.561 279.036 105.052C282.046 104.614 285.187 102.709 287.19 99.7737C289.193 96.8033 289.94 93.3122 290.011 90.188C290.094 87.0402 289.537 84.2 288.944 81.8686C287.7 77.1941 286.55 74.3776 286.763 74.2948L286.775 74.2711Z" fill="#263238"/>
<path d="M252.927 33.4197C250.201 38.8397 252.287 45.4195 255.084 50.804C257.881 56.2004 261.448 61.5376 261.673 67.5967C262.064 77.7622 252.974 86.7443 254.23 96.827C254.977 102.827 259.789 108.117 265.691 109.43C260.879 106.2 260.441 99.1347 262.278 93.6318C264.115 88.1408 273.015 73.6676 274.307 68.0109C278.645 49.0407 276.796 46.8396 270.147 40.1651" fill="#263238"/>
<path d="M271.238 46.946C271.249 47.0999 269.898 47.4076 267.706 47.0999C265.537 46.804 262.527 45.7153 260.002 43.3958C257.478 41.0763 256.162 38.1651 255.688 36.035C255.202 33.8811 255.404 32.5084 255.558 32.5084C255.771 32.4965 255.902 33.8101 256.589 35.7746C257.264 37.7154 258.604 40.3071 260.903 42.4254C263.202 44.5437 265.893 45.6679 267.884 46.1887C269.887 46.7212 271.214 46.7449 271.226 46.9579L271.238 46.946Z" fill="#455A64"/>
<path d="M263.333 103.407C263.333 103.407 263.072 103.3 262.657 102.969C262.242 102.649 261.674 102.105 261.057 101.312C259.86 99.738 258.438 96.9807 258.485 93.3121C258.485 91.4896 258.924 89.4778 259.967 87.5607C261.01 85.6554 262.598 84.0105 264.198 82.3419C265.81 80.6732 267.339 78.8863 268.311 76.6378C269.294 74.4248 269.78 71.8805 269.673 69.3125C269.555 66.7326 268.82 64.2829 267.588 62.1765C266.379 60.0463 264.826 58.1884 263.345 56.4014C260.299 52.8867 257.881 49.3128 256.459 46.0347C255.001 42.7685 254.491 39.8691 254.408 37.8928C254.326 35.9047 254.563 34.8159 254.634 34.8278C254.906 34.7804 254.254 39.3484 257.324 45.6442C258.817 48.7802 261.2 52.1529 264.293 55.6085C265.798 57.3718 267.433 59.2534 268.737 61.5256C270.065 63.7741 270.894 66.4723 271.013 69.2533C271.131 72.0343 270.598 74.768 269.519 77.1703C268.453 79.5963 266.734 81.549 265.099 83.1939C263.463 84.8507 261.934 86.401 260.951 88.1169C259.979 89.821 259.517 91.6553 259.457 93.3476C259.291 96.7677 260.488 99.4304 261.508 101.028C262.574 102.637 263.439 103.324 263.357 103.418L263.333 103.407Z" fill="#455A64"/>
<path d="M273.454 46.2361C273.454 46.2361 274.035 46.5556 274.853 47.4077C275.67 48.2597 276.69 49.6562 277.567 51.5851C279.368 55.4075 280.174 61.5613 278.266 67.7742C276.334 73.9635 272.743 78.6853 270.053 81.8214C267.327 84.9574 265.395 86.6615 265.276 86.555C265.122 86.413 266.805 84.484 269.318 81.2296C271.795 77.9871 275.137 73.3008 276.986 67.3955C278.799 61.4903 278.195 55.6679 276.701 51.952C275.232 48.1651 273.253 46.4018 273.454 46.2361Z" fill="#455A64"/>
<path d="M182.551 208.423L170.309 185.879C169.491 184.388 167.926 183.453 166.22 183.453H79.0862C77.3558 183.453 75.7795 184.411 74.9736 185.926L161.349 243.89L199.57 248.268C200.388 246.706 200.424 244.86 199.642 243.274L182.551 208.423Z" fill="#263238"/>
<g opacity="0.3">
<path d="M274.699 260.032C259.398 253.369 241.798 252.399 227.41 243.949C221.911 240.718 217.04 236.47 211.411 233.452C205.781 230.434 198.954 228.742 193.017 231.085C187.079 233.428 182.575 242.328 185.657 247.913C186.83 250.884 192.472 253.677 195.66 253.404C198.848 253.132 201.87 251.819 205.058 251.416C211.885 250.552 218.439 253.913 224.601 256.99C237.863 263.605 251.576 269.31 265.62 274.043C268.903 275.144 272.34 276.221 275.765 275.712C279.19 275.203 282.556 272.623 282.793 269.167C283.078 264.836 278.693 261.771 274.71 260.032H274.699Z" fill="black"/>
</g>
<path d="M199.582 248.269L169.029 188.53C168.211 186.932 166.575 185.926 164.774 185.926H74.5708L108.17 246.363L199.571 248.269H199.582Z" fill="#95C7EC"/>
<path d="M128.875 207.417C130.132 208.423 131.969 208.222 132.976 206.967C133.983 205.713 133.782 203.879 132.526 202.873C131.269 201.867 129.432 202.068 128.425 203.322C127.418 204.577 127.619 206.411 128.875 207.417Z" fill="#EBEBEB"/>
<path d="M208.246 217.097L199.167 210.103C195.434 205.488 189.816 202.802 183.879 202.802H178.937L175.559 206.589C175.559 206.589 151.358 207.642 150.457 210.624L150.433 211.583V212.151L171.126 213.535C171.126 213.535 153.515 213.476 152.46 213.523C151.298 213.571 147.541 213.228 147.624 215.287C147.684 216.979 149.698 218.316 152.744 218.766C154.001 218.944 169.254 220.269 169.254 220.269C169.254 220.269 153.242 220.115 152.46 220.115C150.575 220.115 150.813 223.121 151.938 223.5C152.827 223.796 174.326 230.068 174.326 230.068C174.326 230.068 170.711 232.494 167.76 232.281C164.809 232.068 159.749 228.281 158.694 230.068C157.639 231.855 157.852 232.908 158.481 233.334C159.109 233.76 166.077 237.334 168.389 237.961C170.711 238.588 189.639 241.582 189.639 241.582L205.342 239.57L208.234 217.097H208.246Z" fill="#FFBE9D"/>
<path d="M167.322 206.885C167.322 206.743 171.127 206.601 175.82 206.577C180.513 206.553 184.318 206.648 184.318 206.802C184.318 206.944 180.513 207.086 175.82 207.109C171.127 207.133 167.322 207.038 167.322 206.885Z" fill="#EB996E"/>
<path d="M208.246 217.097L274.876 229.76L281.56 146.104C281.56 146.104 299.528 131.016 309.033 141.312C318.538 151.607 319.237 163.796 318.633 169.867C318.028 175.938 311.972 247.428 306.947 259.523C299.919 276.434 281.94 275.523 276.915 274.304C271.889 273.073 200.21 239.227 200.21 239.227L208.246 217.097Z" fill="#FFBE9D"/>
<path d="M279.107 145.678C276.76 164.566 272.15 193.476 271.889 212.506C271.889 213.275 317.72 217.097 317.72 217.097C317.72 217.097 320.114 174.009 318.383 160.897C316.428 146.022 305.275 135.773 305.275 135.773H290.899L279.119 145.667L279.107 145.678Z" fill="#FCC62D"/>
<path d="M317.72 217.097C317.72 217.097 317.4 217.097 316.795 217.062C316.132 217.015 315.243 216.944 314.141 216.849C311.77 216.636 308.452 216.34 304.351 215.961C296.019 215.145 284.594 214.032 271.866 212.802L271.569 212.778L271.593 212.482C271.629 211.89 271.676 211.263 271.723 210.624C272.648 197.465 273.489 185.559 274.094 176.873C274.426 172.601 274.698 169.122 274.888 166.648C274.994 165.489 275.077 164.566 275.137 163.867C275.196 163.228 275.243 162.897 275.267 162.897C275.291 162.897 275.291 163.228 275.267 163.867C275.232 164.566 275.196 165.489 275.137 166.648C274.994 169.134 274.793 172.613 274.544 176.885C273.975 185.583 273.205 197.488 272.352 210.66C272.304 211.299 272.269 211.926 272.221 212.518L271.949 212.186C284.665 213.5 296.09 214.683 304.41 215.535C308.499 215.985 311.818 216.352 314.176 216.612C315.278 216.742 316.167 216.849 316.819 216.932C317.424 217.015 317.744 217.062 317.732 217.086L317.72 217.097Z" fill="#263238"/>
</g>
<defs>
<clipPath id="clip0_357_1304">
<rect width="319" height="399" fill="white"/>
</clipPath>
</defs>
</svg>
